# xmcd CD database file
#
# Track frame offsets:
#	150
#	30632
#	75630
#	120510
#	171797
#	221197
#	265205
#
# Disc length: 4471 seconds
#
# Revision: 1
# Processed by: cddbd v1.5.2PL0 Copyright (c) Steve Scherf et al.
# Submitted via: CDex 1.51
#
DISCID=5a117507
DTITLE=CBS All Stars - Montreux Summit Vol.2
DYEAR=1978
DGENRE=Jazz
TTITLE0=Be Cool
TTITLE1=Two Part Invention
TTITLE2=The Moontrane
TTITLE3=Red Top
TTITLE4=Kanon for Flutes
TTITLE5=Rites of Darkness
TTITLE6=Night Crawler
EXTD=YEAR: 1978
EXTT0=
EXTT1=
EXTT2=
EXTT3=
EXTT4=
EXTT5=
EXTT6=
PLAYORDER=
